<!DOCTYPE svg PUBLIC "-//W3C//DTD SVG 1.1//EN" "http://www.w3.org/Graphics/SVG/1.1/DTD/svg11.dtd">
<!-- Uploaded to: SVG Repo, www.svgrepo.com, Transformed by: SVG Repo Mixer Tools -->
<svg fill="#ffffff" width="800px" height="800px" viewBox="0 0 32 32" version="1.1" xmlns="http://www.w3.org/2000/svg" stroke="#ffffff">
<g id="SVGRepo_bgCarrier" stroke-width="0"/>
<g id="SVGRepo_tracerCarrier" stroke-linecap="round" stroke-linejoin="round"/>
<g id="SVGRepo_iconCarrier"> <title>award</title> <path d="M28.641 26.578l-3.799-6.364c1.805-2.055 2.907-4.767 2.907-7.736 0-6.489-5.26-11.749-11.749-11.749s-11.749 5.26-11.749 11.749c0 2.943 1.082 5.633 2.87 7.695l-0.012-0.015-3.832 6.422c-0.111 0.183-0.176 0.404-0.176 0.64 0 0.691 0.56 1.251 1.251 1.251 0.071 0 0.14-0.006 0.207-0.017l-0.007 0.001 2.602-0.426 0.947 2.426c0.175 0.44 0.581 0.753 1.065 0.791l0.004 0c0.032 0.002 0.063 0.004 0.095 0.004 0.46-0 0.863-0.249 1.080-0.619l0.003-0.006 3.775-6.54c0.562 0.1 1.212 0.16 1.875 0.165l0.004 0c0.64-0.005 1.263-0.060 1.87-0.162l-0.069 0.010 3.769 6.526c0.22 0.376 0.622 0.625 1.082 0.625h0c0.031 0 0.063-0.002 0.094-0.004 0.488-0.037 0.896-0.35 1.067-0.783l0.003-0.008 0.947-2.426 2.602 0.426c0.060 0.010 0.129 0.016 0.2 0.016 0.691 0 1.251-0.56 1.251-1.251 0-0.236-0.065-0.457-0.179-0.645l0.003 0.006zM9.48 27.123l-0.369-0.945c-0.193-0.469-0.647-0.793-1.177-0.793-0.067 0-0.132 0.005-0.196 0.015l0.007-0.001-0.947 0.156 2.181-3.655c0.765 0.581 1.638 1.084 2.572 1.47l0.078 0.029zM6.75 12.5c0-5.109 4.141-9.25 9.25-9.25s9.25 4.141 9.25 9.25c0 5.109-4.141 9.25-9.25 9.25v0c-5.106-0.006-9.244-4.144-9.25-9.249v-0.001zM24.168 25.396c-0.060-0.010-0.129-0.016-0.199-0.016-0.527 0-0.978 0.326-1.163 0.787l-0.003 0.008-0.369 0.945-2.135-3.697c1.016-0.408 1.894-0.905 2.693-1.502l-0.031 0.022 2.155 3.609zM16 4.75c-4.28 0-7.75 3.47-7.75 7.75s3.47 7.75 7.75 7.75c4.28 0 7.75-3.47 7.75-7.75v0c-0.005-4.278-3.472-7.745-7.75-7.75h-0zM16 17.75c-2.899 0-5.25-2.351-5.25-5.25s2.351-5.25 5.25-5.25c2.899 0 5.25 2.351 5.25 5.25v0c-0.004 2.898-2.352 5.246-5.25 5.25h-0zM18.666 10.651h-1.129l-0.349-1.072c-0.208-0.459-0.662-0.772-1.188-0.772s-0.981 0.313-1.185 0.764l-0.003 0.008-0.349 1.072h-1.128c-0 0-0 0-0 0-0.69 0-1.25 0.559-1.25 1.25 0 0.414 0.201 0.781 0.512 1.009l0.004 0.002 0.912 0.664-0.349 1.071c-0.039 0.116-0.061 0.249-0.061 0.387 0 0.69 0.56 1.25 1.25 1.25 0.276 0 0.531-0.089 0.738-0.241l-0.004 0.002 0.913-0.663 0.913 0.663c0.203 0.149 0.458 0.238 0.734 0.238 0.69 0 1.25-0.56 1.25-1.25 0-0.138-0.022-0.271-0.064-0.396l0.003 0.009-0.348-1.071 0.912-0.663c0.314-0.23 0.516-0.597 0.516-1.012 0-0.69-0.56-1.25-1.25-1.25-0 0-0 0-0 0h0z"/> </g>
</svg>