<!DOCTYPE svg PUBLIC "-//W3C//DTD SVG 1.1//EN" "http://www.w3.org/Graphics/SVG/1.1/DTD/svg11.dtd">
<!-- Uploaded to: SVG Repo, www.svgrepo.com, Transformed by: SVG Repo Mixer Tools -->
<svg fill="#ffffff" height="800px" width="800px" version="1.1" id="Layer_1" xmlns="http://www.w3.org/2000/svg" xmlns:xlink="http://www.w3.org/1999/xlink" viewBox="0 0 512 512" xml:space="preserve" stroke="#ffffff">
<g id="SVGRepo_bgCarrier" stroke-width="0"/>
<g id="SVGRepo_tracerCarrier" stroke-linecap="round" stroke-linejoin="round"/>
<g id="SVGRepo_iconCarrier"> <g transform="translate(1)"> <g> <g> <path d="M511,473.599V98.135c0-0.003,0-0.006,0-0.009c-0.004-5.116-3.416-8.526-8.533-8.526h-184.32l-56.32-56.32l-0.853-0.853 c-3.413-3.413-8.533-3.413-11.947,0L191.853,89.6H7.533C2.413,89.6-1,93.013-1,98.133V473.6c0,5.12,3.413,8.533,8.533,8.533 h494.933c5.117,0,8.53-3.41,8.533-8.526C511,473.605,511,473.602,511,473.599z M481.987,106.667l-17.067,17.067H45.08 l-17.067-17.067H481.987z M50.2,140.8h409.6v290.133H50.2V140.8z M33.133,135.68v300.373L16.067,453.12V118.613L33.133,135.68z M45.08,448h419.84l17.067,17.067H28.013L45.08,448z M476.867,436.053V135.68l17.067-17.067V453.12L476.867,436.053z M255,50.347 L294.253,89.6h-78.507L255,50.347z"/> <path d="M263.533,200.533c0-5.12-3.413-8.533-8.533-8.533c-18.773,0-34.133,15.36-34.133,34.133c0,5.12,3.413,8.533,8.533,8.533 s8.533-3.413,8.533-8.533c0-9.387,7.68-17.067,17.067-17.067C260.12,209.067,263.533,205.653,263.533,200.533z"/> <path d="M280.6,217.6c-5.12,0-8.533,3.413-8.533,8.533c0,9.387-7.68,17.067-17.067,17.067c-5.12,0-8.533,3.413-8.533,8.533 c0,5.12,3.413,8.533,8.533,8.533c18.773,0,34.133-15.36,34.133-34.133C289.133,221.013,285.72,217.6,280.6,217.6z"/> <path d="M263.533,337.067H178.2c-5.12,0-8.533,3.413-8.533,8.533c0,5.12,3.413,8.533,8.533,8.533h85.333 c5.12,0,8.533-3.413,8.533-8.533C272.067,340.48,268.653,337.067,263.533,337.067z"/> <path d="M127,354.133h17.067c5.12,0,8.533-3.413,8.533-8.533c0-5.12-3.413-8.533-8.533-8.533H127 c-5.12,0-8.533,3.413-8.533,8.533C118.467,350.72,121.88,354.133,127,354.133z"/> <path d="M400.067,371.2H306.2c-5.12,0-8.533,3.413-8.533,8.533s3.413,8.533,8.533,8.533h93.867c5.12,0,8.533-3.413,8.533-8.533 S405.187,371.2,400.067,371.2z"/> <path d="M319.853,352.427l19.627-13.653c11.093,9.387,23.893,9.387,32.427,7.68l13.653,13.653c1.707,1.707,3.413,2.56,5.973,2.56 c2.56,0,4.267-0.853,5.973-2.56c3.413-3.413,3.413-8.533,0-11.947l-17.067-17.067c-2.56-2.56-5.973-3.413-9.387-1.707 c-0.853,0-12.8,5.12-23.893-6.827c-2.56-3.413-7.68-4.267-11.093-1.707l-25.6,17.067c-4.267,2.56-5.12,7.68-2.56,11.947 C310.467,354.133,315.587,354.987,319.853,352.427z"/> <path d="M195.267,371.2H127c-5.12,0-8.533,3.413-8.533,8.533s3.413,8.533,8.533,8.533h68.267c5.12,0,8.533-3.413,8.533-8.533 S200.387,371.2,195.267,371.2z"/> <path d="M263.533,371.2H229.4c-5.12,0-8.533,3.413-8.533,8.533s3.413,8.533,8.533,8.533h34.133c5.12,0,8.533-3.413,8.533-8.533 S268.653,371.2,263.533,371.2z"/> <path d="M413.72,202.24l2.56-0.853c3.413-1.707,5.973-5.12,5.12-9.387s-4.267-6.827-8.533-6.827H309.515 c-12.487-16.554-32.305-27.307-54.515-27.307c-21.435,0-40.633,10.022-53.172,25.6H97.133c-4.267,0-7.68,2.56-8.533,6.827 c-0.853,4.267,1.707,7.68,5.12,9.387l3.413,1.707c12.8,5.12,17.067,16.213,17.067,24.747c0,8.533-4.267,19.627-17.067,24.747 l-3.413,1.707c-3.413,1.707-5.973,5.12-5.12,9.387c0.853,4.267,4.267,6.827,8.533,6.827h104.694 c12.54,15.578,31.738,25.6,53.172,25.6c21.435,0,40.633-10.022,53.172-25.6h104.694c4.267,0,7.68-2.56,8.533-6.827 s-1.707-7.68-5.12-9.387l-2.56-0.853c-12.8-5.12-17.067-16.213-17.067-24.747C396.653,218.453,400.92,207.36,413.72,202.24z M122.733,251.733c5.12-6.827,8.533-16.213,7.68-25.6c0-9.387-2.56-18.773-7.68-25.6h69.027 c-0.785,1.924-1.489,3.888-2.098,5.893c-0.097,0.316-0.181,0.639-0.273,0.958c-0.202,0.701-0.404,1.401-0.583,2.11 c-0.11,0.434-0.204,0.873-0.305,1.311c-0.158,0.681-0.316,1.361-0.453,2.05c-0.054,0.274-0.098,0.55-0.148,0.825 c-0.16,0.858-0.312,1.718-0.44,2.587c-0.014,0.099-0.024,0.197-0.038,0.296c-0.143,1.004-0.269,2.014-0.367,3.031 c-0.009,0.089-0.012,0.178-0.021,0.267c-0.091,0.99-0.17,1.983-0.218,2.985c-0.055,1.106-0.084,2.204-0.084,3.288 s0.029,2.182,0.084,3.288c0.048,1.001,0.127,1.995,0.218,2.984c0.008,0.089,0.012,0.178,0.021,0.267 c0.098,1.018,0.224,2.027,0.367,3.031c0.014,0.099,0.023,0.197,0.038,0.296c0.127,0.868,0.28,1.728,0.44,2.586 c0.051,0.275,0.094,0.552,0.149,0.826c0.137,0.688,0.295,1.368,0.453,2.048c0.101,0.438,0.195,0.878,0.305,1.312 c0.179,0.709,0.381,1.408,0.582,2.108c0.093,0.319,0.176,0.643,0.274,0.96c0.609,2.005,1.313,3.969,2.098,5.893H122.733z M255,277.333c-16.513,0-31.257-7.929-40.635-20.161c-0.218-1.013-0.591-1.998-1.178-2.879 c-5.882-8.403-9.274-18.46-9.377-28.543c0.208-27.985,23.159-50.817,51.19-50.817c16.513,0,31.257,7.929,40.635,20.161 c0.218,1.014,0.591,1.998,1.178,2.879c5.882,8.403,9.274,18.46,9.377,28.543C305.982,254.501,283.032,277.333,255,277.333z M387.267,251.733h-69.027c0.785-1.924,1.489-3.887,2.098-5.893c0.098-0.317,0.181-0.64,0.274-0.96 c0.201-0.7,0.403-1.399,0.582-2.108c0.11-0.435,0.204-0.875,0.305-1.314c0.157-0.679,0.315-1.358,0.452-2.045 c0.055-0.277,0.098-0.555,0.15-0.833c0.159-0.856,0.312-1.714,0.439-2.581c0.014-0.099,0.024-0.197,0.038-0.296 c0.143-1.004,0.269-2.014,0.367-3.031c0.009-0.089,0.012-0.178,0.021-0.267c0.091-0.99,0.17-1.983,0.218-2.984 c0.055-1.106,0.084-2.204,0.084-3.288s-0.029-2.182-0.084-3.288c-0.048-1.001-0.127-1.995-0.218-2.985 c-0.008-0.089-0.012-0.178-0.021-0.267c-0.098-1.018-0.224-2.027-0.367-3.031c-0.014-0.099-0.023-0.197-0.038-0.296 c-0.127-0.867-0.279-1.725-0.439-2.582c-0.051-0.277-0.095-0.555-0.149-0.831c-0.137-0.687-0.295-1.367-0.453-2.047 c-0.101-0.438-0.195-0.878-0.305-1.313c-0.179-0.708-0.381-1.406-0.582-2.105c-0.093-0.321-0.177-0.646-0.275-0.964 c-0.609-2.005-1.313-3.968-2.098-5.892h69.027c-5.12,6.827-7.68,16.213-7.68,25.6 C379.587,235.52,382.147,244.907,387.267,251.733z"/> </g> </g> </g> </g>
</svg>