<?xml version="1.0" encoding="iso-8859-1"?>
<!-- Uploaded to: SVG Repo, www.svgrepo.com, Generator: SVG Repo Mixer Tools -->
<svg fill="#000000" height="800px" width="800px" version="1.1" id="Layer_1" xmlns="http://www.w3.org/2000/svg" xmlns:xlink="http://www.w3.org/1999/xlink" 
	 viewBox="0 0 512 512" xml:space="preserve">
<g>
	<g>
		<path d="M501.074,20.782c-34.841-34.855-126.2,18.907-194.471,87.177c-74.424,74.42-152.201,243.06-155.48,250.201
			c-1.648,3.607-0.889,7.858,1.917,10.66c1.815,1.82,4.242,2.779,6.71,2.779c1.334,0,2.681-0.283,3.95-0.861
			c7.141-3.279,175.776-81.06,250.196-155.48C482.167,146.986,535.92,55.628,501.074,20.782z M479.736,95.85
			c-16.018,33.262-44.158,70.905-79.25,105.996c-55.67,55.665-170.493,115.429-220.518,140.046
			c24.612-50.03,84.376-164.853,140.046-220.523c60.676-60.671,120.328-92.637,151.034-92.637c7.298,0,12.961,1.806,16.615,5.459
			C496.86,43.389,493.896,66.441,479.736,95.85z"/>
	</g>
</g>
<g>
	<g>
		<path d="M384.089,94.35c-23.533,0-42.676,19.143-42.676,42.676c0,23.533,19.143,42.676,42.676,42.676s42.676-19.143,42.676-42.676
			C426.766,113.493,407.622,94.35,384.089,94.35z M384.089,160.735c-13.073,0-23.709-10.638-23.709-23.709
			c0-13.073,10.637-23.709,23.709-23.709c13.072,0,23.709,10.637,23.709,23.709C407.798,150.097,397.161,160.735,384.089,160.735z"
			/>
	</g>
</g>
<g>
	<g>
		<path d="M139.445,362.671c-23.19-23.19-42.625-32.586-59.43-28.65c-22.144,5.145-31.044,31.248-36.934,48.525
			c-1.519,4.455-2.954,8.664-4.145,11.04L19.968,431.52c-1.824,3.654-1.107,8.062,1.778,10.947c2.88,2.879,7.284,3.603,10.947,1.778
			l12.054-6.029c-9.697,16.245-21.519,31.266-31.271,34.73c-3.279,0.545-5.224,0.829-5.335,0.847
			c-4.927,0.704-8.47,5.098-8.118,10.058c0.357,4.964,4.483,8.812,9.461,8.812c2.681,0,4.805-0.398,7.403-1.13
			c14.827-2.474,50.82-9.354,76.9-20.997v22.127c0,3.417,2.364,6.571,5.337,8.251c1.449,0.826,3.324,1.233,4.935,1.233
			c1.69,0,3.511-0.449,5.012-1.352c2.07-1.241,50.832-30.93,56.222-74.698C168.026,403.912,159.348,382.573,139.445,362.671z
			 M146.015,423.722c-2.602,21.385-19.034,39.491-33.26,50.248v-19.24c0-3.496-1.401-6.71-4.485-8.363
			c-1.398-0.75-2.678-1.12-4.211-1.12c-1.838,0-3.541,0.537-5.13,1.593c-11.919,7.946-31.483,14.203-49.464,18.68
			c13.336-17.596,22.792-38.425,25.603-44.988c1.57-3.657,0.702-7.903-2.193-10.635c-2.899-2.737-7.179-3.372-10.74-1.584
			l-12.484,6.247l6.249-12.49c1.76-3.523,3.32-8.102,5.131-13.406c4.533-13.298,11.392-33.405,23.275-36.169
			c6.756-1.556,19.167,1.259,41.497,23.589C141.345,391.625,147.974,407.653,146.015,423.722z"/>
	</g>
</g>
<g>
	<g>
		<path d="M199.121,204.222c-0.912-2.464-2.811-4.383-5.237-5.393c-2.26-0.949-55.795-22.766-90.609,2.435
			c-20.866,15.101-29.887,42.594-26.816,82.529c0.38,4.941,4.501,8.346,9.456,8.346H152.3c3.593,0,6.877-1.605,8.483-4.818
			l37.935-75.656C199.894,209.312,200.038,206.686,199.121,204.222z M146.437,273.172H94.898
			c-0.815-26.08,5.714-46.939,19.458-56.909c18.81-13.638,47.617-8.144,62.537-3.787L146.437,273.172z"/>
	</g>
</g>
<g>
	<g>
		<path d="M321.649,327.792c-1.009-2.426-2.917-4.325-5.381-5.237c-2.473-0.926-5.205-0.769-7.548,0.403l-76.394,37.935
			c-3.214,1.607-5.768,4.89-5.768,8.484v66.386c0,4.955,4.341,9.076,9.282,9.456c5.08,0.389,10.222,0.583,14.913,0.583
			c32.175,0,55.242-9.187,68.421-27.4C344.37,383.578,322.594,330.057,321.649,327.792z M303.417,407.278
			c-9.97,13.776-29.44,20.305-57.891,19.5v-51.54l61.235-30.489C311.656,361.522,316.211,389.598,303.417,407.278z"/>
	</g>
</g>
</svg>