<?xml version="1.0"?>
<svg version="1.1" xmlns="http://www.w3.org/2000/svg" width="120px" height="42px" style=""><path fill="#ffffff" d="M5.9384765625,29.3408203125l-4.5703125-6.9443359375l4.392578125,0l2.7548828125,4.51953125l2.7802734375-4.51953125l4.392578125,0l-4.62109375,6.9443359375l4.8369140625,7.2490234375l-4.4052734375,0l-2.9833984375-4.8623046875l-2.99609375,4.8623046875l-4.392578125,0z M31.110361328125,22.1806640625q0,1.7392578125-1.0537109375,2.9580078125t-2.9580078125,1.67578125l0,0.076171875q2.2470703125,0.279296875,3.40234375,1.36474609375t1.1552734375,2.92626953125q0,2.6787109375-1.9423828125,4.17041015625t-5.5478515625,1.49169921875q-3.021484375,0-5.357421875-1.0029296875l0-3.3388671875q1.0791015625,0.5458984375,2.3740234375,0.888671875t2.564453125,0.3427734375q1.9423828125,0,2.869140625-0.66015625t0.9267578125-2.1201171875q0-1.3076171875-1.06640625-1.853515625t-3.40234375-0.5458984375l-1.4091796875,0l0-3.0087890625l1.4345703125,0q2.158203125,0,3.15478515625-0.56494140625t0.99658203125-1.93603515625q0-2.107421875-2.640625-2.107421875q-0.9140625,0-1.85986328125,0.3046875t-2.10107421875,1.0537109375l-1.8154296875-2.7041015625q2.5390625-1.828125,6.0556640625-1.828125q2.8818359375,0,4.55126953125,1.16796875t1.66943359375,3.25z M48.38576171875,25.951171875q0,5.484375-2.310546875,8.1884765625t-6.9951171875,2.7041015625q-1.650390625,0-2.5009765625-0.177734375l0-3.1484375q1.06640625,0.2666015625,2.234375,0.2666015625q1.9677734375,0,3.2373046875-0.57763671875t1.9423828125-1.8154296875t0.7744140625-3.40869140625l-0.15234375,0q-0.736328125,1.193359375-1.701171875,1.67578125t-2.412109375,0.482421875q-2.4248046875,0-3.8212890625-1.55517578125t-1.396484375-4.32275390625q0-2.9833984375,1.69482421875-4.71630859375t4.61474609375-1.73291015625q2.056640625,0,3.59912109375,0.96484375t2.36767578125,2.79931640625t0.8251953125,4.37353515625z M41.66994140625,20.9619140625q-1.21875,0-1.904296875,0.837890625t-0.685546875,2.412109375q0,1.345703125,0.6220703125,2.1328125t1.8916015625,0.787109375q1.193359375,0,2.0439453125-0.78076171875t0.8505859375-1.79638671875q0-1.5107421875-0.79345703125-2.5517578125t-2.02490234375-1.041015625z M70.256865234375,27.2841796875q0,4.6083984375-2.28515625,7.083984375t-6.55078125,2.4755859375t-6.55078125-2.4755859375t-2.28515625-7.109375t2.29150390625-7.07763671875t6.56982421875-2.44384765625t6.54443359375,2.462890625t2.26611328125,7.083984375z M56.710966796875,27.2841796875q0,3.1103515625,1.1806640625,4.6845703125t3.529296875,1.57421875q4.7099609375,0,4.7099609375-6.2587890625q0-6.271484375-4.6845703125-6.271484375q-2.3486328125,0-3.5419921875,1.58056640625t-1.193359375,4.69091796875z M83.7490625,36.58984375l-4.46875-14.5615234375l-0.1142578125,0q0.2412109375,4.443359375,0.2412109375,5.9287109375l0,8.6328125l-3.5166015625,0l0-18.560546875l5.357421875,0l4.392578125,14.193359375l0.076171875,0l4.6591796875-14.193359375l5.357421875,0l0,18.560546875l-3.6689453125,0l0-8.78515625q0-0.6220703125,0.01904296875-1.4345703125t0.17138671875-4.31640625l-0.1142578125,0l-4.7861328125,14.5361328125l-3.60546875,0z M112.88188476563,36.58984375l-10.689453125,0l0-18.560546875l10.689453125,0l0,3.224609375l-6.75390625,0l0,4.0751953125l6.2841796875,0l0,3.224609375l-6.2841796875,0l0,4.7861328125l6.75390625,0l0,3.25z"/><path fill="#ffffff" d=""/></svg>
